<svg xmlns="http://www.w3.org/2000/svg" xmlns:xlink="http://www.w3.org/1999/xlink" width="50" zoomAndPan="magnify" viewBox="0 0 37.5 37.499999" height="50" preserveAspectRatio="xMidYMid meet" version="1.0"><defs><g/><clipPath id="id1"><path d="M 8.660156 8.660156 L 28.910156 8.660156 L 28.910156 28.910156 L 8.660156 28.910156 Z M 8.660156 8.660156 " clip-rule="nonzero"/></clipPath></defs><g clip-path="url(#id1)"><path fill="#010101" d="M 18.785156 8.660156 C 13.195312 8.660156 8.660156 13.195312 8.660156 18.785156 C 8.660156 24.378906 13.195312 28.910156 18.785156 28.910156 C 24.378906 28.910156 28.910156 24.378906 28.910156 18.785156 C 28.910156 13.195312 24.378906 8.660156 18.785156 8.660156 " fill-opacity="1" fill-rule="nonzero"/></g><g fill="#ebe6e4" fill-opacity="1"><g transform="translate(10.645737, 20.799611)"><g><path d="M 1.738281 -2.011719 L 1.738281 -10.089844 C 1.738281 -10.105469 1.722656 -10.132812 1.695312 -10.132812 L 0.519531 -10.132812 C 0.507812 -10.132812 0.492188 -10.105469 0.492188 -10.089844 L 0.492188 0 C 0.492188 0.0273438 0.507812 0.0429688 0.519531 0.0429688 L 1.695312 0.0429688 C 1.722656 0.0429688 1.738281 0.0273438 1.738281 0 L 1.738281 -1.867188 L 1.898438 -2.113281 L 3.300781 -4.371094 L 5.472656 0.0273438 C 5.472656 0.0429688 5.488281 0.0429688 5.5 0.0429688 L 6.820312 0.0429688 C 6.832031 0.0429688 6.832031 0.0429688 6.847656 0.0273438 C 6.847656 0.015625 6.847656 0 6.847656 -0.015625 L 4.082031 -5.617188 L 6.484375 -9.484375 L 6.542969 -9.585938 L 6.847656 -10.0625 C 6.863281 -10.089844 6.847656 -10.105469 6.832031 -10.121094 C 6.820312 -10.132812 6.789062 -10.121094 6.777344 -10.105469 L 5.992188 -8.847656 L 5.398438 -7.890625 L 5.3125 -7.746094 Z M 3.953125 -5.097656 C 3.9375 -5.082031 3.921875 -5.066406 3.910156 -5.054688 C 3.894531 -5.054688 3.894531 -5.066406 3.894531 -5.066406 C 3.910156 -5.082031 3.921875 -5.097656 3.9375 -5.109375 C 3.9375 -5.109375 3.9375 -5.097656 3.953125 -5.097656 Z M 3.574219 -4.617188 C 3.519531 -4.488281 3.519531 -4.472656 3.402344 -4.546875 L 3.445312 -4.605469 C 3.488281 -4.617188 3.53125 -4.617188 3.574219 -4.617188 Z M 3.359375 -4.429688 C 3.359375 -4.429688 3.375 -4.429688 3.375 -4.414062 Z M 4.386719 -3.820312 C 4.402344 -3.820312 4.414062 -3.820312 4.460938 -3.835938 C 4.414062 -3.820312 4.402344 -3.808594 4.386719 -3.808594 C 4.386719 -3.808594 4.386719 -3.820312 4.386719 -3.820312 Z M 4.53125 -2.128906 C 4.53125 -2.113281 4.515625 -2.113281 4.503906 -2.113281 L 4.488281 -2.144531 C 4.503906 -2.144531 4.515625 -2.128906 4.53125 -2.128906 Z M 4.503906 -3.664062 C 4.515625 -3.664062 4.53125 -3.664062 4.546875 -3.664062 L 4.546875 -3.589844 C 4.53125 -3.589844 4.53125 -3.589844 4.515625 -3.589844 C 4.515625 -3.621094 4.503906 -3.632812 4.503906 -3.664062 Z M 4.605469 -3.316406 L 4.648438 -3.316406 C 4.648438 -3.316406 4.648438 -3.316406 4.648438 -3.300781 C 4.632812 -3.300781 4.617188 -3.300781 4.605469 -3.300781 C 4.605469 -3.300781 4.605469 -3.316406 4.605469 -3.316406 Z M 4.707031 -2.953125 C 4.808594 -3.027344 4.808594 -3.027344 4.851562 -2.910156 C 4.792969 -2.925781 4.761719 -2.9375 4.707031 -2.953125 Z M 4.863281 -1.433594 C 4.820312 -1.519531 4.792969 -1.578125 4.75 -1.664062 C 4.851562 -1.605469 4.851562 -1.605469 4.863281 -1.433594 Z M 4.707031 -3.445312 C 4.707031 -3.476562 4.648438 -3.589844 4.648438 -3.632812 C 4.648438 -3.621094 4.675781 -3.722656 4.691406 -3.707031 C 4.761719 -3.589844 4.75 -3.5625 4.707031 -3.445312 Z M 4.894531 -3.039062 C 4.90625 -3.039062 4.921875 -3.054688 4.921875 -3.054688 L 4.964844 -2.996094 C 4.953125 -2.996094 4.9375 -2.984375 4.921875 -2.984375 Z M 5.023438 -3.214844 L 5.023438 -3.199219 C 5.007812 -3.199219 4.996094 -3.199219 4.980469 -3.199219 C 4.980469 -3.214844 4.980469 -3.214844 4.980469 -3.214844 Z M 4.996094 -3.402344 C 5.082031 -3.445312 5.097656 -3.417969 5.023438 -3.359375 C 5.023438 -3.375 5.007812 -3.386719 4.996094 -3.402344 Z M 5.109375 -1.273438 C 5.109375 -1.273438 5.109375 -1.273438 5.109375 -1.289062 L 5.167969 -1.289062 C 5.167969 -1.273438 5.167969 -1.273438 5.167969 -1.257812 C 5.152344 -1.257812 5.140625 -1.273438 5.109375 -1.273438 Z M 5.242188 -2.300781 L 5.253906 -2.300781 Z M 5.746094 -1.492188 C 5.691406 -1.460938 5.644531 -1.449219 5.601562 -1.433594 C 5.660156 -1.519531 5.660156 -1.519531 5.746094 -1.492188 Z M 5.617188 -1.910156 C 5.660156 -1.925781 5.691406 -1.941406 5.71875 -1.941406 C 5.746094 -1.867188 5.777344 -1.808594 5.804688 -1.738281 C 5.675781 -1.722656 5.660156 -1.824219 5.617188 -1.910156 Z M 5.746094 -1.203125 C 5.71875 -1.1875 5.675781 -1.1875 5.644531 -1.171875 C 5.644531 -1.1875 5.632812 -1.203125 5.632812 -1.214844 C 5.675781 -1.230469 5.703125 -1.230469 5.734375 -1.246094 C 5.734375 -1.230469 5.746094 -1.214844 5.746094 -1.203125 Z M 5.878906 -1.375 C 5.878906 -1.390625 5.878906 -1.390625 5.863281 -1.390625 C 5.878906 -1.40625 5.878906 -1.40625 5.890625 -1.40625 C 5.890625 -1.390625 5.890625 -1.390625 5.890625 -1.390625 C 5.890625 -1.390625 5.878906 -1.375 5.878906 -1.375 Z M 5.949219 -0.898438 L 5.980469 -0.867188 C 5.964844 -0.839844 5.949219 -0.8125 5.921875 -0.78125 C 5.90625 -0.796875 5.90625 -0.8125 5.890625 -0.824219 C 5.90625 -0.839844 5.9375 -0.867188 5.949219 -0.898438 Z M 6.050781 -0.96875 C 6.050781 -0.96875 6.050781 -0.984375 6.050781 -0.984375 C 6.050781 -0.984375 6.066406 -0.984375 6.066406 -0.96875 C 6.066406 -0.96875 6.050781 -0.96875 6.050781 -0.96875 Z M 6.601562 -0.101562 C 6.617188 -0.117188 6.617188 -0.117188 6.617188 -0.128906 C 6.617188 -0.117188 6.617188 -0.117188 6.628906 -0.117188 C 6.617188 -0.101562 6.617188 -0.101562 6.601562 -0.101562 Z M 5.9375 -1.460938 C 5.9375 -1.476562 5.9375 -1.476562 5.9375 -1.492188 L 6.023438 -1.503906 L 6.039062 -1.476562 C 6.007812 -1.460938 5.980469 -1.460938 5.9375 -1.460938 Z M 5.53125 -0.957031 C 5.53125 -0.957031 5.515625 -0.96875 5.515625 -0.96875 C 5.515625 -0.984375 5.53125 -0.984375 5.53125 -0.984375 C 5.53125 -0.96875 5.53125 -0.96875 5.53125 -0.957031 Z M 1.636719 -5.199219 C 1.59375 -5.34375 1.5625 -5.386719 1.621094 -5.515625 C 1.636719 -5.488281 1.652344 -5.457031 1.652344 -5.429688 L 1.652344 -5.253906 C 1.652344 -5.242188 1.636719 -5.226562 1.636719 -5.199219 Z M 1.492188 -2.34375 L 1.605469 -2.230469 C 1.605469 -2.214844 1.605469 -2.214844 1.605469 -2.214844 C 1.605469 -2.199219 1.605469 -2.171875 1.59375 -2.144531 C 1.59375 -2.144531 1.59375 -2.144531 1.578125 -2.15625 C 1.59375 -2.171875 1.59375 -2.199219 1.605469 -2.214844 L 1.605469 -2.230469 C 1.503906 -2.15625 1.503906 -2.257812 1.492188 -2.34375 Z M 1.273438 -3.011719 L 1.40625 -3.011719 C 1.390625 -2.96875 1.390625 -2.9375 1.359375 -2.867188 C 1.332031 -2.925781 1.304688 -2.953125 1.273438 -3.011719 Z M 1.347656 -0.722656 C 1.332031 -0.722656 1.332031 -0.722656 1.316406 -0.722656 C 1.316406 -0.738281 1.316406 -0.738281 1.332031 -0.738281 C 1.347656 -0.738281 1.347656 -0.738281 1.347656 -0.722656 Z M 1.171875 -8.746094 C 1.1875 -8.746094 1.1875 -8.757812 1.1875 -8.757812 C 1.203125 -8.757812 1.214844 -8.757812 1.230469 -8.746094 C 1.230469 -8.746094 1.230469 -8.746094 1.230469 -8.730469 C 1.214844 -8.746094 1.1875 -8.746094 1.171875 -8.746094 Z M 1.214844 -5.054688 C 1.203125 -5.039062 1.1875 -5.007812 1.171875 -4.996094 C 1.160156 -5.007812 1.160156 -5.007812 1.144531 -5.023438 C 1.160156 -5.039062 1.171875 -5.054688 1.1875 -5.066406 C 1.203125 -5.054688 1.203125 -5.054688 1.214844 -5.054688 Z M 1.203125 -9.394531 L 1.113281 -9.394531 C 1.113281 -9.410156 1.113281 -9.425781 1.113281 -9.441406 C 1.144531 -9.441406 1.171875 -9.425781 1.203125 -9.425781 C 1.203125 -9.410156 1.203125 -9.410156 1.203125 -9.394531 Z M 1.160156 -1.808594 L 1.160156 -1.78125 C 1.128906 -1.78125 1.101562 -1.78125 1.070312 -1.765625 C 1.070312 -1.78125 1.070312 -1.796875 1.058594 -1.796875 C 1.101562 -1.808594 1.128906 -1.808594 1.160156 -1.808594 Z M 1.070312 -1.578125 C 1.101562 -1.605469 1.160156 -1.621094 1.203125 -1.652344 C 1.273438 -1.5625 1.203125 -1.550781 1.128906 -1.492188 C 1.101562 -1.535156 1.058594 -1.5625 1.070312 -1.578125 Z M 1.214844 -1.1875 L 1.246094 -1.171875 L 1.203125 -1.058594 C 1.1875 -1.058594 1.171875 -1.058594 1.160156 -1.070312 C 1.171875 -1.113281 1.1875 -1.160156 1.214844 -1.1875 Z M 1.160156 -3.15625 C 1.101562 -3.273438 1.304688 -3.242188 1.359375 -3.230469 C 1.359375 -3.140625 1.1875 -3.070312 1.160156 -3.15625 Z M 1.289062 -4.996094 C 1.273438 -4.980469 1.273438 -4.964844 1.273438 -4.953125 C 1.257812 -4.964844 1.257812 -4.980469 1.257812 -4.980469 C 1.257812 -4.980469 1.273438 -4.980469 1.289062 -4.996094 Z M 1.273438 -9.628906 C 1.304688 -9.640625 1.332031 -9.640625 1.347656 -9.613281 C 1.332031 -9.597656 1.316406 -9.597656 1.304688 -9.585938 C 1.304688 -9.597656 1.289062 -9.613281 1.273438 -9.628906 Z M 1.375 -5.140625 C 1.390625 -5.167969 1.40625 -5.183594 1.40625 -5.199219 C 1.417969 -5.199219 1.433594 -5.199219 1.449219 -5.199219 C 1.433594 -5.167969 1.433594 -5.152344 1.433594 -5.125 C 1.417969 -5.140625 1.390625 -5.140625 1.375 -5.140625 Z M 1.359375 -8.703125 L 1.375 -8.714844 L 1.390625 -8.703125 Z M 1.449219 -8.585938 C 1.417969 -8.585938 1.40625 -8.601562 1.390625 -8.613281 C 1.390625 -8.613281 1.390625 -8.628906 1.40625 -8.644531 C 1.417969 -8.628906 1.433594 -8.613281 1.460938 -8.601562 C 1.449219 -8.601562 1.449219 -8.585938 1.449219 -8.585938 Z M 1.492188 -3.230469 L 1.449219 -3.230469 C 1.460938 -3.242188 1.476562 -3.242188 1.492188 -3.230469 Z M 1.535156 -4.617188 C 1.503906 -4.617188 1.492188 -4.605469 1.476562 -4.605469 C 1.476562 -4.617188 1.492188 -4.632812 1.492188 -4.648438 C 1.503906 -4.648438 1.519531 -4.632812 1.535156 -4.617188 Z M 1.503906 -8.570312 C 1.503906 -8.601562 1.519531 -8.628906 1.519531 -8.65625 C 1.535156 -8.644531 1.550781 -8.644531 1.550781 -8.644531 C 1.550781 -8.613281 1.535156 -8.585938 1.535156 -8.554688 C 1.519531 -8.570312 1.503906 -8.570312 1.503906 -8.570312 Z M 1.476562 -4.808594 C 1.476562 -4.808594 1.460938 -4.808594 1.460938 -4.808594 C 1.460938 -4.820312 1.476562 -4.835938 1.476562 -4.851562 C 1.476562 -4.851562 1.492188 -4.851562 1.492188 -4.851562 C 1.492188 -4.835938 1.476562 -4.820312 1.476562 -4.808594 Z M 1.59375 -2.054688 L 1.621094 -2.054688 L 1.621094 -2.011719 L 1.59375 -2.011719 Z M 1.042969 -2.113281 L 1.027344 -2.097656 L 1.027344 -2.113281 Z M 0.824219 -0.433594 C 0.824219 -0.40625 0.824219 -0.390625 0.8125 -0.375 C 0.796875 -0.390625 0.765625 -0.390625 0.738281 -0.40625 L 0.753906 -0.433594 C 0.765625 -0.433594 0.796875 -0.433594 0.824219 -0.433594 Z M 0.753906 -4.589844 C 0.765625 -4.605469 0.78125 -4.617188 0.796875 -4.632812 C 0.796875 -4.632812 0.8125 -4.605469 0.824219 -4.589844 C 0.8125 -4.574219 0.796875 -4.558594 0.78125 -4.546875 C 0.765625 -4.558594 0.765625 -4.574219 0.753906 -4.589844 Z M 0.78125 -5.660156 C 0.796875 -5.691406 0.8125 -5.734375 0.824219 -5.777344 C 0.839844 -5.761719 0.867188 -5.761719 0.882812 -5.746094 C 0.867188 -5.71875 0.855469 -5.675781 0.824219 -5.644531 C 0.8125 -5.644531 0.796875 -5.644531 0.78125 -5.660156 Z M 0.824219 -8.382812 C 0.824219 -8.382812 0.824219 -8.398438 0.824219 -8.410156 C 0.824219 -8.398438 0.824219 -8.382812 0.839844 -8.382812 C 0.824219 -8.382812 0.824219 -8.382812 0.824219 -8.382812 Z M 0.855469 -8.542969 C 0.855469 -8.554688 0.855469 -8.570312 0.855469 -8.601562 C 0.867188 -8.601562 0.867188 -8.601562 0.882812 -8.601562 L 0.882812 -8.542969 C 0.867188 -8.542969 0.867188 -8.542969 0.855469 -8.542969 Z M 0.867188 -0.796875 C 0.898438 -0.78125 0.925781 -0.765625 0.941406 -0.765625 C 0.941406 -0.753906 0.941406 -0.738281 0.925781 -0.738281 C 0.910156 -0.738281 0.882812 -0.753906 0.867188 -0.753906 C 0.867188 -0.765625 0.867188 -0.78125 0.867188 -0.796875 Z M 0.96875 -1.289062 C 0.984375 -1.230469 1 -1.171875 1.027344 -1.101562 C 0.839844 -1.027344 0.925781 -1.359375 0.96875 -1.289062 Z M 0.941406 -5.242188 C 0.941406 -5.253906 0.957031 -5.253906 0.957031 -5.269531 C 0.96875 -5.253906 0.984375 -5.242188 1.011719 -5.210938 C 1 -5.210938 1 -5.199219 0.984375 -5.199219 Z M 0.753906 -5.242188 C 0.738281 -5.226562 0.738281 -5.226562 0.722656 -5.226562 C 0.722656 -5.226562 0.722656 -5.242188 0.722656 -5.242188 C 0.738281 -5.242188 0.738281 -5.242188 0.753906 -5.242188 Z M 0.710938 -4.964844 C 0.722656 -4.90625 0.78125 -4.75 0.722656 -4.691406 C 0.664062 -4.632812 0.621094 -4.75 0.621094 -4.808594 C 0.621094 -4.851562 0.664062 -4.894531 0.710938 -4.964844 Z M 0.636719 -0.273438 C 0.636719 -0.261719 0.621094 -0.246094 0.609375 -0.261719 C 0.609375 -0.261719 0.621094 -0.273438 0.621094 -0.273438 C 0.621094 -0.273438 0.621094 -0.273438 0.636719 -0.273438 Z M 1.59375 -1.519531 L 1.652344 -1.519531 L 1.652344 -1.503906 C 1.636719 -1.492188 1.621094 -1.492188 1.59375 -1.492188 Z M 1.652344 -1.449219 L 1.652344 -1.375 C 1.652344 -1.417969 1.636719 -1.417969 1.652344 -1.449219 Z M 0.566406 -8.179688 L 0.621094 -8.164062 C 0.609375 -8.152344 0.609375 -8.136719 0.609375 -8.136719 C 0.59375 -8.136719 0.578125 -8.136719 0.566406 -8.152344 Z M 0.566406 -1.144531 C 0.566406 -1.128906 0.566406 -1.128906 0.566406 -1.128906 C 0.566406 -1.128906 0.566406 -1.113281 0.566406 -1.113281 Z M 1.652344 -0.390625 C 1.652344 -0.417969 1.652344 -0.449219 1.636719 -0.476562 C 1.652344 -0.476562 1.652344 -0.476562 1.652344 -0.476562 Z M 1.652344 -0.390625 "/></g></g></g><g fill="#ebe6e4" fill-opacity="1"><g transform="translate(20.984416, 25.089965)"><g><path d="M 1.796875 -2.082031 L 1.796875 -10.433594 C 1.796875 -10.449219 1.78125 -10.480469 1.75 -10.480469 L 0.539062 -10.480469 C 0.523438 -10.480469 0.507812 -10.449219 0.507812 -10.433594 L 0.507812 0 C 0.507812 0.03125 0.523438 0.0429688 0.539062 0.0429688 L 1.75 0.0429688 C 1.78125 0.0429688 1.796875 0.03125 1.796875 0 L 1.796875 -1.929688 L 1.960938 -2.1875 L 3.414062 -4.519531 L 5.660156 0.03125 C 5.660156 0.0429688 5.675781 0.0429688 5.6875 0.0429688 L 7.050781 0.0429688 C 7.066406 0.0429688 7.066406 0.0429688 7.082031 0.03125 C 7.082031 0.015625 7.082031 0 7.082031 -0.015625 L 4.222656 -5.808594 L 6.707031 -9.804688 L 6.765625 -9.910156 L 7.082031 -10.40625 C 7.097656 -10.433594 7.082031 -10.449219 7.066406 -10.464844 C 7.050781 -10.480469 7.023438 -10.464844 7.007812 -10.449219 L 6.199219 -9.148438 L 5.585938 -8.160156 L 5.496094 -8.007812 Z M 4.085938 -5.269531 C 4.070312 -5.253906 4.058594 -5.238281 4.042969 -5.226562 C 4.027344 -5.226562 4.027344 -5.238281 4.027344 -5.238281 C 4.042969 -5.253906 4.058594 -5.269531 4.070312 -5.285156 C 4.070312 -5.285156 4.070312 -5.269531 4.085938 -5.269531 Z M 3.699219 -4.777344 C 3.636719 -4.640625 3.636719 -4.625 3.519531 -4.699219 L 3.5625 -4.761719 C 3.609375 -4.777344 3.652344 -4.777344 3.699219 -4.777344 Z M 3.472656 -4.582031 C 3.472656 -4.582031 3.488281 -4.582031 3.488281 -4.566406 Z M 4.535156 -3.953125 C 4.550781 -3.953125 4.566406 -3.953125 4.609375 -3.96875 C 4.566406 -3.953125 4.550781 -3.9375 4.535156 -3.9375 C 4.535156 -3.9375 4.535156 -3.953125 4.535156 -3.953125 Z M 4.6875 -2.199219 C 4.6875 -2.1875 4.671875 -2.1875 4.65625 -2.1875 L 4.640625 -2.214844 C 4.65625 -2.214844 4.671875 -2.199219 4.6875 -2.199219 Z M 4.65625 -3.789062 C 4.671875 -3.789062 4.6875 -3.789062 4.699219 -3.789062 L 4.699219 -3.710938 C 4.6875 -3.710938 4.6875 -3.710938 4.671875 -3.710938 C 4.671875 -3.742188 4.65625 -3.757812 4.65625 -3.789062 Z M 4.761719 -3.429688 L 4.804688 -3.429688 C 4.804688 -3.429688 4.804688 -3.429688 4.804688 -3.414062 C 4.789062 -3.414062 4.777344 -3.414062 4.761719 -3.414062 C 4.761719 -3.414062 4.761719 -3.429688 4.761719 -3.429688 Z M 4.867188 -3.054688 C 4.96875 -3.128906 4.96875 -3.128906 5.015625 -3.007812 C 4.957031 -3.023438 4.925781 -3.039062 4.867188 -3.054688 Z M 5.03125 -1.480469 C 4.984375 -1.570312 4.957031 -1.632812 4.910156 -1.722656 C 5.015625 -1.660156 5.015625 -1.660156 5.03125 -1.480469 Z M 4.867188 -3.5625 C 4.867188 -3.59375 4.804688 -3.710938 4.804688 -3.757812 C 4.804688 -3.742188 4.835938 -3.847656 4.851562 -3.832031 C 4.925781 -3.710938 4.910156 -3.683594 4.867188 -3.5625 Z M 5.058594 -3.144531 C 5.074219 -3.144531 5.089844 -3.160156 5.089844 -3.160156 L 5.136719 -3.097656 C 5.121094 -3.097656 5.105469 -3.085938 5.089844 -3.085938 Z M 5.195312 -3.324219 L 5.195312 -3.308594 C 5.179688 -3.308594 5.164062 -3.308594 5.148438 -3.308594 C 5.148438 -3.324219 5.148438 -3.324219 5.148438 -3.324219 Z M 5.164062 -3.519531 C 5.253906 -3.5625 5.269531 -3.535156 5.195312 -3.472656 C 5.195312 -3.488281 5.179688 -3.503906 5.164062 -3.519531 Z M 5.285156 -1.316406 C 5.285156 -1.316406 5.285156 -1.316406 5.285156 -1.332031 L 5.34375 -1.332031 C 5.34375 -1.316406 5.34375 -1.316406 5.34375 -1.300781 C 5.328125 -1.300781 5.316406 -1.316406 5.285156 -1.316406 Z M 5.417969 -2.378906 L 5.433594 -2.378906 Z M 5.945312 -1.542969 C 5.882812 -1.511719 5.839844 -1.496094 5.792969 -1.480469 C 5.855469 -1.570312 5.855469 -1.570312 5.945312 -1.542969 Z M 5.808594 -1.976562 C 5.855469 -1.992188 5.882812 -2.007812 5.914062 -2.007812 C 5.945312 -1.929688 5.972656 -1.871094 6.003906 -1.796875 C 5.867188 -1.78125 5.855469 -1.886719 5.808594 -1.976562 Z M 5.945312 -1.242188 C 5.914062 -1.226562 5.867188 -1.226562 5.839844 -1.210938 C 5.839844 -1.226562 5.824219 -1.242188 5.824219 -1.257812 C 5.867188 -1.273438 5.898438 -1.273438 5.929688 -1.289062 C 5.929688 -1.273438 5.945312 -1.257812 5.945312 -1.242188 Z M 6.078125 -1.421875 C 6.078125 -1.4375 6.078125 -1.4375 6.0625 -1.4375 C 6.078125 -1.453125 6.078125 -1.453125 6.09375 -1.453125 C 6.09375 -1.4375 6.09375 -1.4375 6.09375 -1.4375 C 6.09375 -1.4375 6.078125 -1.421875 6.078125 -1.421875 Z M 6.152344 -0.929688 L 6.183594 -0.898438 C 6.167969 -0.867188 6.152344 -0.839844 6.125 -0.808594 C 6.109375 -0.824219 6.109375 -0.839844 6.09375 -0.851562 C 6.109375 -0.867188 6.136719 -0.898438 6.152344 -0.929688 Z M 6.257812 -1.003906 C 6.257812 -1.003906 6.257812 -1.019531 6.257812 -1.019531 C 6.257812 -1.019531 6.273438 -1.019531 6.273438 -1.003906 C 6.273438 -1.003906 6.257812 -1.003906 6.257812 -1.003906 Z M 6.828125 -0.105469 C 6.84375 -0.121094 6.84375 -0.121094 6.84375 -0.132812 C 6.84375 -0.121094 6.84375 -0.121094 6.855469 -0.121094 C 6.84375 -0.105469 6.84375 -0.105469 6.828125 -0.105469 Z M 6.136719 -1.511719 C 6.136719 -1.527344 6.136719 -1.527344 6.136719 -1.542969 L 6.226562 -1.558594 L 6.242188 -1.527344 C 6.214844 -1.511719 6.183594 -1.511719 6.136719 -1.511719 Z M 5.71875 -0.988281 C 5.71875 -0.988281 5.703125 -1.003906 5.703125 -1.003906 C 5.703125 -1.019531 5.71875 -1.019531 5.71875 -1.019531 C 5.71875 -1.003906 5.71875 -1.003906 5.71875 -0.988281 Z M 1.691406 -5.375 C 1.648438 -5.523438 1.617188 -5.570312 1.675781 -5.703125 C 1.691406 -5.675781 1.707031 -5.644531 1.707031 -5.613281 L 1.707031 -5.433594 C 1.707031 -5.417969 1.691406 -5.40625 1.691406 -5.375 Z M 1.542969 -2.425781 L 1.660156 -2.304688 C 1.660156 -2.289062 1.660156 -2.289062 1.660156 -2.289062 C 1.660156 -2.277344 1.660156 -2.246094 1.648438 -2.214844 C 1.648438 -2.214844 1.648438 -2.214844 1.632812 -2.230469 C 1.648438 -2.246094 1.648438 -2.277344 1.660156 -2.289062 L 1.660156 -2.304688 C 1.558594 -2.230469 1.558594 -2.335938 1.542969 -2.425781 Z M 1.316406 -3.113281 L 1.453125 -3.113281 C 1.4375 -3.070312 1.4375 -3.039062 1.40625 -2.964844 C 1.378906 -3.023438 1.347656 -3.054688 1.316406 -3.113281 Z M 1.390625 -0.75 C 1.378906 -0.75 1.378906 -0.75 1.363281 -0.75 C 1.363281 -0.761719 1.363281 -0.761719 1.378906 -0.761719 C 1.390625 -0.761719 1.390625 -0.761719 1.390625 -0.75 Z M 1.210938 -9.042969 C 1.226562 -9.042969 1.226562 -9.058594 1.226562 -9.058594 C 1.242188 -9.058594 1.257812 -9.058594 1.273438 -9.042969 C 1.273438 -9.042969 1.273438 -9.042969 1.273438 -9.027344 C 1.257812 -9.042969 1.226562 -9.042969 1.210938 -9.042969 Z M 1.257812 -5.226562 C 1.242188 -5.210938 1.226562 -5.179688 1.210938 -5.164062 C 1.199219 -5.179688 1.199219 -5.179688 1.183594 -5.195312 C 1.199219 -5.210938 1.210938 -5.226562 1.226562 -5.238281 C 1.242188 -5.226562 1.242188 -5.226562 1.257812 -5.226562 Z M 1.242188 -9.714844 L 1.152344 -9.714844 C 1.152344 -9.730469 1.152344 -9.746094 1.152344 -9.761719 C 1.183594 -9.761719 1.210938 -9.746094 1.242188 -9.746094 C 1.242188 -9.730469 1.242188 -9.730469 1.242188 -9.714844 Z M 1.199219 -1.871094 L 1.199219 -1.839844 C 1.167969 -1.839844 1.136719 -1.839844 1.109375 -1.828125 C 1.109375 -1.839844 1.109375 -1.855469 1.09375 -1.855469 C 1.136719 -1.871094 1.167969 -1.871094 1.199219 -1.871094 Z M 1.109375 -1.632812 C 1.136719 -1.660156 1.199219 -1.675781 1.242188 -1.707031 C 1.316406 -1.617188 1.242188 -1.601562 1.167969 -1.542969 C 1.136719 -1.585938 1.09375 -1.617188 1.109375 -1.632812 Z M 1.257812 -1.226562 L 1.289062 -1.210938 L 1.242188 -1.09375 C 1.226562 -1.09375 1.210938 -1.09375 1.199219 -1.109375 C 1.210938 -1.152344 1.226562 -1.199219 1.257812 -1.226562 Z M 1.199219 -3.265625 C 1.136719 -3.382812 1.347656 -3.355469 1.40625 -3.339844 C 1.40625 -3.25 1.226562 -3.175781 1.199219 -3.265625 Z M 1.332031 -5.164062 C 1.316406 -5.148438 1.316406 -5.136719 1.316406 -5.121094 C 1.300781 -5.136719 1.300781 -5.148438 1.300781 -5.148438 C 1.300781 -5.148438 1.316406 -5.148438 1.332031 -5.164062 Z M 1.316406 -9.957031 C 1.347656 -9.972656 1.378906 -9.972656 1.390625 -9.941406 C 1.378906 -9.925781 1.363281 -9.925781 1.347656 -9.910156 C 1.347656 -9.925781 1.332031 -9.941406 1.316406 -9.957031 Z M 1.421875 -5.316406 C 1.4375 -5.34375 1.453125 -5.359375 1.453125 -5.375 C 1.46875 -5.375 1.480469 -5.375 1.496094 -5.375 C 1.480469 -5.34375 1.480469 -5.328125 1.480469 -5.300781 C 1.46875 -5.316406 1.4375 -5.316406 1.421875 -5.316406 Z M 1.40625 -8.996094 L 1.421875 -9.011719 L 1.4375 -8.996094 Z M 1.496094 -8.878906 C 1.46875 -8.878906 1.453125 -8.894531 1.4375 -8.90625 C 1.4375 -8.90625 1.4375 -8.921875 1.453125 -8.9375 C 1.46875 -8.921875 1.480469 -8.90625 1.511719 -8.894531 C 1.496094 -8.894531 1.496094 -8.878906 1.496094 -8.878906 Z M 1.542969 -3.339844 L 1.496094 -3.339844 C 1.511719 -3.355469 1.527344 -3.355469 1.542969 -3.339844 Z M 1.585938 -4.777344 C 1.558594 -4.777344 1.542969 -4.761719 1.527344 -4.761719 C 1.527344 -4.777344 1.542969 -4.789062 1.542969 -4.804688 C 1.558594 -4.804688 1.570312 -4.789062 1.585938 -4.777344 Z M 1.558594 -8.863281 C 1.558594 -8.894531 1.570312 -8.921875 1.570312 -8.953125 C 1.585938 -8.9375 1.601562 -8.9375 1.601562 -8.9375 C 1.601562 -8.90625 1.585938 -8.878906 1.585938 -8.847656 C 1.570312 -8.863281 1.558594 -8.863281 1.558594 -8.863281 Z M 1.527344 -4.96875 C 1.527344 -4.96875 1.511719 -4.96875 1.511719 -4.96875 C 1.511719 -4.984375 1.527344 -5 1.527344 -5.015625 C 1.527344 -5.015625 1.542969 -5.015625 1.542969 -5.015625 C 1.542969 -5 1.527344 -4.984375 1.527344 -4.96875 Z M 1.648438 -2.125 L 1.675781 -2.125 L 1.675781 -2.082031 L 1.648438 -2.082031 Z M 1.078125 -2.1875 L 1.0625 -2.171875 L 1.0625 -2.1875 Z M 0.851562 -0.449219 C 0.851562 -0.417969 0.851562 -0.402344 0.839844 -0.390625 C 0.824219 -0.402344 0.792969 -0.402344 0.761719 -0.417969 L 0.777344 -0.449219 C 0.792969 -0.449219 0.824219 -0.449219 0.851562 -0.449219 Z M 0.777344 -4.746094 C 0.792969 -4.761719 0.808594 -4.777344 0.824219 -4.789062 C 0.824219 -4.789062 0.839844 -4.761719 0.851562 -4.746094 C 0.839844 -4.730469 0.824219 -4.714844 0.808594 -4.699219 C 0.792969 -4.714844 0.792969 -4.730469 0.777344 -4.746094 Z M 0.808594 -5.855469 C 0.824219 -5.882812 0.839844 -5.929688 0.851562 -5.972656 C 0.867188 -5.957031 0.898438 -5.957031 0.914062 -5.945312 C 0.898438 -5.914062 0.882812 -5.867188 0.851562 -5.839844 C 0.839844 -5.839844 0.824219 -5.839844 0.808594 -5.855469 Z M 0.851562 -8.667969 C 0.851562 -8.667969 0.851562 -8.683594 0.851562 -8.699219 C 0.851562 -8.683594 0.851562 -8.667969 0.867188 -8.667969 C 0.851562 -8.667969 0.851562 -8.667969 0.851562 -8.667969 Z M 0.882812 -8.832031 C 0.882812 -8.847656 0.882812 -8.863281 0.882812 -8.894531 C 0.898438 -8.894531 0.898438 -8.894531 0.914062 -8.894531 L 0.914062 -8.832031 C 0.898438 -8.832031 0.898438 -8.832031 0.882812 -8.832031 Z M 0.898438 -0.824219 C 0.929688 -0.808594 0.957031 -0.792969 0.972656 -0.792969 C 0.972656 -0.777344 0.972656 -0.761719 0.957031 -0.761719 C 0.941406 -0.761719 0.914062 -0.777344 0.898438 -0.777344 C 0.898438 -0.792969 0.898438 -0.808594 0.898438 -0.824219 Z M 1.003906 -1.332031 C 1.019531 -1.273438 1.03125 -1.210938 1.0625 -1.136719 C 0.867188 -1.0625 0.957031 -1.40625 1.003906 -1.332031 Z M 0.972656 -5.417969 C 0.972656 -5.433594 0.988281 -5.433594 0.988281 -5.449219 C 1.003906 -5.433594 1.019531 -5.417969 1.046875 -5.390625 C 1.03125 -5.390625 1.03125 -5.375 1.019531 -5.375 Z M 0.777344 -5.417969 C 0.761719 -5.40625 0.761719 -5.40625 0.75 -5.40625 C 0.75 -5.40625 0.75 -5.417969 0.75 -5.417969 C 0.761719 -5.417969 0.761719 -5.417969 0.777344 -5.417969 Z M 0.734375 -5.136719 C 0.75 -5.074219 0.808594 -4.910156 0.75 -4.851562 C 0.6875 -4.789062 0.644531 -4.910156 0.644531 -4.96875 C 0.644531 -5.015625 0.6875 -5.058594 0.734375 -5.136719 Z M 0.660156 -0.285156 C 0.660156 -0.269531 0.644531 -0.253906 0.628906 -0.269531 C 0.628906 -0.269531 0.644531 -0.285156 0.644531 -0.285156 C 0.644531 -0.285156 0.644531 -0.285156 0.660156 -0.285156 Z M 1.648438 -1.570312 L 1.707031 -1.570312 L 1.707031 -1.558594 C 1.691406 -1.542969 1.675781 -1.542969 1.648438 -1.542969 Z M 1.707031 -1.496094 L 1.707031 -1.421875 C 1.707031 -1.46875 1.691406 -1.46875 1.707031 -1.496094 Z M 0.582031 -8.457031 L 0.644531 -8.445312 C 0.628906 -8.429688 0.628906 -8.414062 0.628906 -8.414062 C 0.613281 -8.414062 0.597656 -8.414062 0.582031 -8.429688 Z M 0.582031 -1.183594 C 0.582031 -1.167969 0.582031 -1.167969 0.582031 -1.167969 C 0.582031 -1.167969 0.582031 -1.152344 0.582031 -1.152344 Z M 1.707031 -0.402344 C 1.707031 -0.433594 1.707031 -0.464844 1.691406 -0.492188 C 1.707031 -0.492188 1.707031 -0.492188 1.707031 -0.492188 Z M 1.707031 -0.402344 "/></g></g></g><g fill="#ebe6e4" fill-opacity="1"><g transform="translate(17.920374, 21.319498)"><g><path d="M 2.960938 -0.441406 C 2.863281 -0.253906 2.746094 -0.1875 2.585938 -0.1875 C 2.398438 -0.1875 2.195312 -0.304688 1.988281 -0.476562 C 2.183594 -0.75 2.300781 -1.109375 2.34375 -1.511719 L 2.300781 -1.511719 C 2.261719 -1.117188 2.136719 -0.769531 1.953125 -0.511719 C 1.640625 -0.785156 1.339844 -1.1875 1.125 -1.5 C 1.519531 -1.683594 1.765625 -1.894531 1.757812 -2.183594 C 1.75 -2.453125 1.519531 -2.703125 1.097656 -2.703125 C 0.789062 -2.703125 0.441406 -2.503906 0.441406 -2.109375 C 0.449219 -1.855469 0.617188 -1.613281 0.757812 -1.398438 C 0.765625 -1.390625 0.773438 -1.378906 0.78125 -1.367188 C 0.410156 -1.246094 0.105469 -1.015625 0.117188 -0.621094 C 0.132812 -0.1875 0.511719 0.0390625 0.988281 0.0390625 C 1.292969 0.0390625 1.542969 -0.0546875 1.746094 -0.214844 C 1.960938 -0.046875 2.160156 0.0429688 2.347656 0.0429688 C 2.667969 0.0429688 2.890625 -0.15625 2.996094 -0.421875 Z M 1.097656 -2.660156 C 1.320312 -2.660156 1.453125 -2.457031 1.460938 -2.203125 C 1.460938 -1.882812 1.375 -1.707031 1.101562 -1.53125 C 1.09375 -1.539062 1.085938 -1.550781 1.078125 -1.5625 C 0.890625 -1.835938 0.769531 -2.066406 0.765625 -2.257812 C 0.757812 -2.484375 0.914062 -2.660156 1.097656 -2.660156 Z M 1.125 -0.0390625 C 0.707031 -0.0390625 0.453125 -0.332031 0.453125 -0.691406 C 0.445312 -0.953125 0.601562 -1.1875 0.804688 -1.328125 C 1.136719 -0.847656 1.433594 -0.480469 1.707031 -0.25 C 1.539062 -0.117188 1.34375 -0.0390625 1.125 -0.0390625 Z M 1.125 -0.0390625 "/></g></g></g></svg>