<svg width="47" height="47" viewBox="0 0 47 47" fill="none" xmlns="http://www.w3.org/2000/svg">
<path d="M23.5 47C36.4787 47 47 36.4787 47 23.5C47 10.5213 36.4787 0 23.5 0C10.5213 0 0 10.5213 0 23.5C0 36.4787 10.5213 47 23.5 47Z" fill="#2C2C2C"/>
<path fill-rule="evenodd" clip-rule="evenodd" d="M22.6119 33.8068H24.4564C24.4564 33.8068 25.0135 33.7456 25.298 33.439C25.5598 33.1575 25.5514 32.6288 25.5514 32.6288C25.5514 32.6288 25.5154 30.1539 26.664 29.7894C27.7964 29.4304 29.2504 32.1814 30.7916 33.2392C31.957 34.0397 32.8425 33.8642 32.8425 33.8642L36.9634 33.8068C36.9634 33.8068 39.1191 33.674 38.0969 31.9791C38.0132 31.8404 37.5017 30.7253 35.033 28.4338C32.4492 26.0356 32.7952 26.4235 35.9077 22.275C37.8033 19.7486 38.5611 18.2062 38.3244 17.5455C38.0986 16.9163 36.7045 17.0826 36.7045 17.0826L32.0646 17.1116C32.0646 17.1116 31.7207 17.0646 31.4656 17.2171C31.2163 17.3667 31.0559 17.7152 31.0559 17.7152C31.0559 17.7152 30.3215 19.6703 29.3421 21.3329C27.2761 24.8413 26.45 25.0264 26.1123 24.8086C25.3269 24.3009 25.5229 22.7689 25.5229 21.6806C25.5229 18.2807 26.0386 16.8631 24.5188 16.4962C24.0144 16.3743 23.6433 16.2938 22.3535 16.2809C20.6979 16.2637 19.2967 16.2859 18.5033 16.6746C17.9754 16.9331 17.5683 17.5091 17.8163 17.5422C18.1229 17.5832 18.8174 17.7294 19.1857 18.2309C19.6611 18.8777 19.6444 20.3305 19.6444 20.3305C19.6444 20.3305 19.9175 24.3327 19.0064 24.83C18.3809 25.171 17.523 24.4747 15.6811 21.2919C14.7373 19.6615 14.0247 17.8593 14.0247 17.8593C14.0247 17.8593 13.8873 17.5225 13.6422 17.3424C13.3448 17.1241 12.9293 17.0546 12.9293 17.0546L8.52023 17.0835C8.52023 17.0835 7.85835 17.1019 7.61538 17.3897C7.39923 17.6457 7.59821 18.1752 7.59821 18.1752C7.59821 18.1752 11.05 26.2509 14.9585 30.3206C18.5422 34.0518 22.6119 33.8068 22.6119 33.8068Z" fill="white"/>
</svg>
