<svg width="47" height="47" viewBox="0 0 47 47" fill="none" xmlns="http://www.w3.org/2000/svg">
<g clip-path="url(#clip0_81_362)">
<path fill-rule="evenodd" clip-rule="evenodd" d="M23.4932 0C10.538 0 0 10.541 0 23.4998C0 28.6391 1.65738 33.4053 4.4748 37.2739L1.54668 46.005L10.5794 43.1181C14.2945 45.5773 18.728 47 23.5068 47C36.462 47 47 36.4586 47 23.5002C47 10.5414 36.462 0.000388463 23.5068 0.000388463H23.4932V0ZM16.9326 11.9369C16.4769 10.8455 16.1316 10.8042 15.4412 10.7761C15.2062 10.7625 14.9442 10.7488 14.6539 10.7488C13.7558 10.7488 12.8168 11.0112 12.2504 11.5914C11.5601 12.296 9.84731 13.9398 9.84731 17.3109C9.84731 20.682 12.3057 23.9423 12.6371 24.3985C12.9824 24.8539 17.4299 31.8722 24.3355 34.7325C29.7357 36.9705 31.3381 36.7631 32.5672 36.5007C34.3625 36.1139 36.614 34.7871 37.1804 33.185C37.7467 31.5821 37.7467 30.2143 37.5807 29.9242C37.415 29.6341 36.9589 29.4688 36.2686 29.123C35.5783 28.7775 32.2218 27.1197 31.5864 26.8986C30.9647 26.6639 30.3711 26.7469 29.9018 27.4101C29.2387 28.3358 28.5897 29.2754 28.0647 29.8416C27.6503 30.2837 26.9732 30.3391 26.4073 30.104C25.6476 29.7866 23.5209 29.0399 20.8964 26.7052C18.866 24.8956 17.4849 22.644 17.0846 21.9671C16.6839 21.2766 17.0433 20.8754 17.3605 20.5026C17.7059 20.0741 18.0373 19.7704 18.3826 19.3696C18.728 18.9691 18.9213 18.7617 19.1423 18.2919C19.3774 17.8361 19.2113 17.3662 19.0456 17.0208C18.88 16.6753 17.4989 13.3042 16.9326 11.9369Z" fill="#2C2C2C"/>
</g>
<defs>
<clipPath id="clip0_81_362">
<rect width="47" height="47" fill="white"/>
</clipPath>
</defs>
</svg>
