<?xml version="1.0" standalone="no"?>
<!DOCTYPE svg PUBLIC "-//W3C//DTD SVG 20010904//EN"
 "http://www.w3.org/TR/2001/REC-SVG-20010904/DTD/svg10.dtd">
<svg version="1.0" xmlns="http://www.w3.org/2000/svg"
 width="700.000000pt" height="700.000000pt" viewBox="0 0 700.000000 700.000000"
 preserveAspectRatio="xMidYMid meet">
<metadata>
Created by potrace 1.14, written by Peter Selinger 2001-2017
</metadata>
<g transform="translate(0.000000,700.000000) scale(0.100000,-0.100000)"
fill="#000000" stroke="none">
<path d="M3316 5383 c-4 -4 -21 -9 -37 -10 -73 -7 -85 -9 -96 -16 -6 -4 -14
-1 -16 5 -4 10 -6 10 -6 1 -1 -8 -15 -13 -36 -13 -19 0 -35 -4 -35 -8 0 -5
-12 -9 -27 -10 -32 -1 -47 -5 -83 -19 -14 -6 -35 -9 -47 -8 -12 1 -20 -1 -18
-6 5 -7 -52 -25 -67 -21 -5 1 -8 -3 -8 -9 0 -5 -4 -7 -10 -4 -5 3 -10 2 -10
-4 0 -5 -11 -8 -25 -7 -13 2 -22 -1 -19 -5 5 -8 -10 -13 -20 -6 -2 1 -13 -6
-25 -17 -11 -10 -27 -16 -36 -13 -8 4 -14 1 -12 -5 1 -5 -7 -12 -18 -14 -11
-1 -21 -8 -23 -14 -2 -5 -8 -8 -13 -4 -5 3 -9 0 -9 -6 0 -6 -4 -9 -9 -5 -6 3
-14 -3 -20 -12 -6 -11 -11 -13 -11 -5 0 10 -3 10 -14 0 -8 -7 -12 -16 -9 -20
2 -4 -2 -5 -10 -3 -7 3 -24 -3 -36 -14 -13 -12 -28 -18 -34 -14 -5 3 -7 1 -3
-5 3 -6 -3 -13 -14 -17 -11 -3 -20 -11 -20 -16 0 -6 -4 -8 -9 -4 -5 3 -17 -5
-26 -17 -8 -13 -17 -21 -20 -18 -2 3 -15 -4 -27 -15 -13 -11 -26 -19 -30 -18
-3 2 -11 -11 -17 -27 -6 -20 -7 -30 0 -30 6 0 7 -5 4 -10 -9 -14 -10 -703 -2
-717 4 -6 1 -14 -5 -16 -10 -4 -9 -8 2 -16 14 -10 7 -16 -14 -12 -5 1 -4 -4 2
-11 7 -10 11 -105 11 -303 -1 -160 0 -298 0 -307 1 -27 18 -22 25 7 4 14 10
25 15 25 13 0 8 -25 -8 -44 -7 -9 -10 -16 -6 -16 4 0 2 -7 -5 -15 -7 -8 -15
-13 -19 -11 -3 2 -5 -61 -4 -140 1 -109 -1 -143 -10 -137 -8 4 -7 1 1 -9 7 -9
12 -31 10 -49 -4 -30 -8 -33 -35 -34 -18 0 -29 3 -27 7 3 4 0 8 -5 8 -6 0 -11
-3 -11 -7 0 -5 -23 -8 -50 -9 -28 0 -50 4 -50 9 0 5 -7 4 -15 -3 -10 -9 -15
-9 -15 -1 0 6 -5 10 -12 9 -15 -4 -18 22 -4 41 8 11 8 13 -1 8 -15 -9 -13 44
2 55 6 5 6 8 -2 8 -12 0 -12 17 0 37 4 6 3 14 -2 18 -13 7 -10 48 4 57 7 5 6
8 -2 8 -12 0 -12 17 0 36 3 6 3 14 0 18 -12 12 -12 36 0 36 8 0 9 3 2 8 -16
10 -17 54 -2 45 7 -4 5 1 -3 12 -17 21 -17 24 2 36 8 6 9 9 1 9 -12 0 -12 17
0 37 4 6 3 14 -2 18 -13 7 -10 48 4 57 7 5 6 8 -2 8 -12 0 -12 24 0 36 4 4 3
12 -2 18 -14 17 -14 28 1 37 10 7 10 9 0 9 -12 0 -11 38 2 59 4 5 2 12 -3 15
-11 7 -9 25 3 45 6 9 5 12 -2 7 -7 -4 -10 1 -9 14 1 11 6 20 12 20 6 0 6 3 -1
8 -13 9 -13 105 1 114 7 5 6 8 -1 8 -13 0 -13 58 -1 77 4 7 3 15 -3 18 -7 4
-7 12 -2 18 10 14 10 27 -1 44 -4 6 -3 14 3 18 6 4 7 12 3 18 -12 20 -12 37 0
37 8 0 8 3 -1 9 -14 9 -13 32 3 43 7 5 6 8 0 8 -15 0 -16 40 -2 40 8 0 8 3 2
8 -15 11 -19 46 -4 36 8 -5 9 -3 3 7 -13 21 -14 39 -1 39 8 0 8 3 2 8 -14 10
-18 42 -5 42 6 0 8 5 3 13 -11 18 -11 71 1 79 7 5 6 8 -3 8 -11 0 -11 3 0 17
10 11 10 14 1 9 -13 -8 -13 19 1 41 4 6 3 14 -2 17 -5 4 -12 2 -16 -4 -4 -6
-10 -8 -14 -5 -8 4 -36 -44 -33 -57 1 -4 -5 -5 -13 -2 -11 5 -13 2 -8 -12 4
-12 3 -15 -5 -10 -7 4 -12 1 -12 -7 0 -7 -9 -23 -20 -35 -11 -12 -20 -26 -20
-32 0 -5 -4 -10 -10 -10 -5 0 -10 -6 -10 -14 0 -8 -3 -16 -7 -18 -10 -4 -42
-57 -50 -80 -3 -10 -10 -18 -15 -18 -5 0 -6 -4 -3 -10 3 -5 1 -10 -4 -10 -6 0
-11 -6 -11 -14 0 -8 -7 -21 -15 -30 -9 -8 -15 -17 -15 -18 5 -12 -14 -57 -22
-52 -6 4 -8 1 -6 -7 3 -8 -3 -30 -14 -49 -10 -19 -18 -43 -18 -52 0 -10 -4
-18 -8 -18 -5 0 -9 -7 -10 -15 -1 -8 -3 -22 -4 -30 -1 -8 -5 -15 -9 -15 -5 0
-6 -7 -3 -15 4 -8 2 -15 -3 -15 -5 0 -9 -10 -10 -22 -1 -11 -8 -25 -15 -29 -8
-6 -9 -9 -2 -9 8 0 7 -12 -3 -42 -8 -22 -12 -47 -9 -55 3 -8 1 -11 -4 -8 -9 6
-15 -30 -11 -64 2 -7 -1 -11 -6 -8 -4 3 -9 -11 -9 -31 -3 -68 -10 -128 -17
-139 -4 -6 -1 -13 5 -16 10 -3 10 -7 -1 -21 -11 -13 -12 -22 -2 -42 8 -19 8
-24 -1 -18 -7 5 -9 2 -5 -8 3 -9 0 -21 -6 -28 -9 -10 -9 -11 0 -6 8 4 10 -7 9
-36 -2 -24 2 -49 8 -57 8 -11 8 -13 -1 -8 -13 8 -12 -30 1 -51 4 -7 2 -12 -6
-12 -8 0 -9 -3 -3 -8 12 -9 13 -42 1 -61 -6 -10 -6 -12 2 -7 12 7 13 2 15 -56
1 -13 6 -26 11 -30 7 -5 5 -8 -4 -8 -11 0 -12 -2 -2 -8 6 -5 13 -27 15 -50 1
-23 6 -42 11 -42 4 0 6 -9 3 -20 -3 -11 0 -20 5 -20 6 0 4 -8 -3 -17 -10 -11
-10 -14 -1 -9 6 4 12 4 13 -1 0 -4 3 -17 6 -28 2 -11 5 -28 6 -37 1 -10 5 -18
10 -18 5 0 7 -7 3 -15 -3 -8 -1 -15 4 -15 6 0 9 -3 9 -7 -3 -17 14 -73 22 -73
5 0 9 -11 9 -25 0 -14 4 -25 9 -25 5 0 12 -7 15 -16 4 -9 2 -13 -5 -8 -13 8
21 -48 36 -58 5 -4 7 -8 2 -8 -10 0 22 -62 37 -72 8 -5 7 -8 -1 -8 -8 0 -6 -7
5 -18 11 -11 25 -33 33 -50 8 -18 17 -32 21 -32 5 0 8 -7 8 -15 0 -8 5 -15 10
-15 6 0 10 -7 10 -15 0 -8 5 -15 10 -15 6 0 10 -6 10 -14 0 -8 7 -17 16 -20 9
-4 14 -13 10 -22 -3 -8 -2 -13 2 -11 4 3 23 -17 42 -43 19 -27 38 -46 42 -44
5 3 8 -2 8 -10 0 -9 4 -16 9 -16 5 0 13 -9 16 -20 3 -11 13 -20 21 -20 8 0 14
-4 14 -9 0 -5 17 -25 38 -45 78 -75 129 -121 150 -135 11 -8 18 -19 15 -24 -3
-6 -1 -7 6 -3 7 5 23 -3 38 -18 14 -14 30 -26 36 -26 5 0 18 -10 28 -22 11
-11 19 -17 19 -12 0 5 7 0 15 -10 8 -11 15 -17 15 -13 0 4 24 -8 54 -27 30
-19 57 -32 60 -29 3 4 6 1 6 -6 0 -7 5 -9 10 -6 6 3 10 2 10 -3 0 -6 11 -13
25 -16 14 -4 23 -11 20 -16 -3 -6 1 -7 9 -4 9 3 16 1 16 -6 0 -6 3 -9 8 -6 12
7 83 -30 75 -40 -4 -5 -2 -4 6 3 11 9 17 8 29 -3 8 -8 21 -13 28 -10 8 3 14 1
14 -5 0 -6 6 -9 13 -6 6 2 18 -3 25 -12 11 -13 12 -13 6 -1 -6 12 -4 13 7 3 7
-7 23 -13 36 -13 13 0 23 -4 23 -8 0 -4 10 -8 23 -9 12 -1 33 -4 47 -8 14 -4
31 -7 38 -7 6 -1 12 -6 12 -12 0 -6 5 -4 10 4 8 12 10 12 10 1 0 -8 7 -11 20
-8 11 3 20 2 20 -1 0 -4 21 -8 47 -10 26 -2 51 -8 55 -15 5 -8 8 -8 8 -1 0 6
7 11 15 11 8 0 15 -3 15 -7 0 -4 15 -6 33 -5 18 0 60 -1 95 -5 40 -4 62 -2 62
5 0 5 5 3 10 -5 8 -12 11 -13 19 -1 7 11 9 11 14 0 3 -9 6 -9 6 -2 1 8 10 9
31 3 17 -5 30 -6 30 -2 0 4 27 7 61 7 33 0 63 3 65 7 2 3 18 5 35 4 16 -1 32
1 35 5 2 4 13 6 24 4 11 -2 20 0 20 4 0 4 7 8 15 8 8 0 15 -5 15 -11 0 -6 4
-5 9 3 5 8 26 15 47 16 21 2 40 7 42 13 2 6 10 8 18 5 8 -3 21 0 29 7 9 7 18
10 22 7 3 -3 18 0 34 9 16 8 29 12 29 8 0 -4 6 -2 13 4 6 6 15 11 20 11 4 0
23 8 43 16 20 8 40 13 44 10 4 -3 10 2 14 10 3 8 15 15 26 15 11 0 20 4 20 9
0 5 11 8 25 7 13 -2 23 2 22 8 -1 6 5 11 13 11 8 0 19 6 23 13 5 7 12 10 18 7
5 -4 9 -1 9 5 0 6 5 8 10 5 6 -3 13 1 16 9 3 9 10 14 14 11 4 -3 13 2 20 10 7
8 19 15 26 15 8 0 14 5 14 11 0 5 5 7 10 4 6 -3 10 -1 10 6 0 7 3 9 6 6 4 -4
15 3 25 15 11 11 19 17 19 12 0 -5 7 0 15 10 8 11 15 17 15 13 0 -7 35 20 72
56 10 9 18 14 18 10 0 -5 7 1 16 12 8 11 18 20 23 20 12 0 41 32 34 39 -4 3
-1 6 5 6 6 0 25 13 42 30 17 16 35 30 40 30 6 0 9 3 8 8 -1 4 14 25 35 46 20
21 37 43 37 49 0 6 3 7 7 4 10 -11 40 46 35 66 -2 9 -8 17 -13 17 -5 0 -9 6
-9 13 0 18 -24 67 -32 67 -5 0 -8 7 -8 15 0 14 -33 78 -52 102 -6 7 -8 20 -4
28 3 9 2 13 -4 10 -6 -3 -10 1 -10 9 0 9 -5 16 -11 16 -5 0 -7 5 -3 11 3 6 1
15 -7 19 -7 5 -14 16 -15 25 -1 9 -10 25 -18 34 -9 10 -16 25 -16 34 0 9 -4
19 -10 22 -5 3 -10 15 -10 26 0 10 -4 19 -8 19 -5 0 -14 16 -22 35 -8 19 -18
35 -22 35 -5 0 -7 4 -3 9 3 5 -2 17 -11 25 -11 12 -12 16 -2 16 8 0 6 5 -5 11
-9 6 -15 14 -12 20 4 5 1 9 -4 9 -6 0 -11 9 -11 20 0 11 -5 20 -11 20 -6 0 -9
6 -6 14 3 8 -1 17 -9 20 -8 3 -14 12 -14 20 0 8 -6 17 -12 19 -10 4 -10 6 0 6
10 1 10 5 -2 17 -9 8 -13 20 -10 26 5 7 2 8 -6 3 -9 -6 -12 -4 -8 7 4 9 0 15
-8 15 -8 0 -14 -8 -14 -16 0 -9 -9 -23 -19 -31 -11 -7 -18 -17 -15 -22 3 -4
-2 -8 -10 -8 -18 0 -11 26 10 34 8 3 14 12 14 19 0 8 7 20 15 27 9 7 13 15 10
18 -2 3 5 13 16 23 11 9 19 20 17 23 -2 3 5 14 14 25 9 11 14 22 11 25 -4 3
-1 6 5 6 7 0 12 7 12 15 0 8 4 15 9 15 8 0 24 37 22 53 -1 4 6 7 16 7 9 0 13
3 10 6 -8 8 24 64 36 64 4 0 5 5 2 10 -3 6 1 10 10 10 11 0 15 5 12 14 -3 8 1
20 9 26 8 7 14 19 14 27 0 8 10 24 23 37 12 13 23 30 25 37 2 8 8 16 13 17 5
2 9 8 9 12 0 9 36 67 65 105 8 10 15 25 15 32 0 7 5 13 10 13 6 0 10 6 10 13
0 7 9 23 21 35 11 12 18 26 15 30 -3 5 3 16 12 25 26 24 47 51 44 55 -2 1 -2
8 1 15 2 6 4 0 4 -15 0 -16 -4 -28 -9 -28 -5 0 -6 -5 -3 -10 3 -6 -1 -13 -9
-16 -9 -3 -16 -12 -16 -18 0 -7 -9 -22 -19 -33 -11 -12 -17 -24 -14 -27 4 -3
1 -6 -5 -6 -7 0 -12 -7 -12 -15 0 -8 -5 -15 -12 -15 -6 0 -9 -3 -5 -6 3 -4 -5
-21 -18 -39 -14 -17 -22 -35 -19 -38 4 -4 -1 -9 -10 -13 -9 -3 -13 -10 -10
-15 3 -5 -2 -12 -10 -15 -9 -3 -13 -10 -10 -15 3 -5 1 -9 -5 -9 -5 0 -22 -25
-36 -55 -15 -30 -32 -55 -37 -55 -5 0 -6 -5 -2 -12 4 -7 3 -8 -4 -4 -8 5 -12
0 -12 -12 0 -11 -7 -25 -15 -32 -8 -7 -12 -17 -8 -23 3 -5 1 -7 -5 -3 -6 3
-13 2 -16 -3 -4 -5 -2 -12 4 -16 6 -4 8 -10 5 -15 -3 -5 2 -16 11 -24 11 -12
12 -16 2 -16 -9 0 -9 -3 -2 -8 13 -8 47 -72 39 -72 -3 0 3 -10 15 -22 11 -12
20 -30 20 -40 0 -10 5 -18 12 -18 6 0 8 -3 5 -6 -3 -4 0 -16 8 -28 8 -11 15
-28 15 -38 0 -9 8 -23 18 -30 9 -7 17 -19 18 -25 2 -30 5 -34 17 -27 7 5 7 1
-3 -12 -8 -10 -10 -16 -6 -12 10 8 46 -53 39 -64 -2 -5 1 -8 7 -8 6 0 9 -4 6
-9 -3 -5 1 -11 9 -15 9 -3 12 -12 8 -22 -4 -12 -3 -15 5 -10 8 5 10 2 6 -8 -3
-9 -2 -16 4 -16 9 0 32 -50 31 -67 -1 -3 3 -9 8 -12 13 -10 33 -49 33 -66 0
-8 4 -15 9 -15 8 0 18 -22 26 -59 2 -8 11 -19 20 -24 13 -7 14 -11 3 -25 -7
-9 -8 -13 -2 -9 7 4 14 0 18 -8 7 -20 26 -19 26 0 0 9 6 18 14 21 8 3 12 12 9
20 -3 8 1 14 8 14 7 0 9 3 6 6 -4 4 2 19 13 34 11 15 17 30 13 34 -3 3 -1 6 5
6 7 0 11 3 10 8 -2 9 18 60 38 95 8 15 13 27 10 27 -3 0 4 21 14 46 11 25 18
50 14 55 -3 5 -1 9 5 9 6 0 7 7 4 17 -4 9 -2 14 3 11 5 -4 10 10 11 29 1 19 6
40 11 46 5 7 8 22 7 35 -1 12 2 22 7 22 4 0 8 10 7 23 -1 35 12 101 23 114 6
7 5 14 -2 18 -6 3 -7 11 -3 18 3 6 8 45 9 86 2 42 6 87 9 99 3 13 2 21 -3 18
-5 -3 -6 11 -2 34 4 21 3 44 -1 52 -5 7 -3 16 4 20 7 4 7 8 2 8 -6 0 -10 23
-9 50 0 28 -3 50 -7 50 -9 0 -6 20 5 39 6 10 5 12 -2 7 -11 -7 -15 13 -15 77
0 9 -3 17 -6 17 -4 0 -8 11 -9 25 -1 14 -3 36 -4 50 -1 14 -6 25 -11 25 -5 0
-7 9 -4 20 3 11 1 20 -4 20 -4 0 -6 6 -3 14 3 8 1 17 -5 21 -6 3 -11 19 -11
35 0 15 -4 30 -10 32 -5 2 -11 12 -13 23 -2 11 -7 28 -11 37 -4 9 -5 21 -2 26
3 6 -1 13 -10 16 -8 3 -13 10 -9 15 3 5 1 12 -5 16 -6 4 -8 11 -5 16 3 5 -1 6
-9 3 -9 -3 -14 -10 -11 -14 2 -4 -9 -22 -25 -39 -17 -17 -28 -31 -25 -31 4 0
-2 -13 -12 -30 -9 -16 -20 -30 -24 -30 -7 0 -22 -40 -20 -53 1 -5 -3 -6 -9 -2
-5 3 -10 -1 -10 -10 0 -8 -7 -18 -15 -21 -8 -4 -12 -10 -9 -15 3 -5 0 -9 -6
-9 -6 0 -9 -4 -6 -8 2 -4 1 -14 -5 -22 -7 -12 -9 -11 -9 4 0 24 47 106 61 106
6 0 8 4 5 8 -3 5 3 18 12 28 10 10 19 21 19 24 4 19 28 60 35 60 4 0 8 6 8 13
0 7 8 22 18 33 17 19 25 64 11 64 -4 0 -13 16 -20 35 -7 19 -17 35 -21 35 -4
0 -8 9 -8 20 0 11 -5 20 -11 20 -5 0 -8 4 -5 9 3 5 -1 12 -9 15 -8 3 -14 9
-13 13 3 12 -24 63 -34 63 -4 0 -8 6 -8 13 0 6 -18 36 -40 65 -22 28 -37 52
-34 52 3 0 -5 10 -18 23 -13 12 -31 34 -41 50 -10 15 -24 27 -33 27 -8 0 -12
5 -9 10 3 6 -1 13 -9 16 -9 3 -13 10 -10 15 3 5 -2 9 -10 9 -9 0 -16 5 -16 11
0 16 -102 109 -112 103 -4 -3 -8 1 -8 8 0 8 -9 20 -21 28 -20 15 -40 31 -87
71 -12 10 -26 19 -30 19 -4 0 -15 9 -25 20 -10 12 -22 18 -27 15 -6 -4 -13 1
-16 9 -3 9 -12 16 -20 16 -8 0 -14 5 -14 10 0 6 -9 10 -19 10 -11 0 -26 8 -33
18 -7 9 -20 18 -28 20 -8 2 -16 8 -18 13 -2 5 -12 9 -23 9 -10 0 -19 5 -19 11
0 5 -4 7 -10 4 -5 -3 -10 -1 -10 5 0 7 -7 10 -15 6 -8 -3 -15 -2 -15 2 0 8
-60 36 -72 33 -5 0 -8 4 -8 10 0 5 -4 8 -9 4 -5 -3 -12 -1 -16 5 -4 6 -11 8
-16 5 -5 -4 -9 -1 -9 5 0 6 -4 9 -9 5 -5 -3 -12 -1 -16 5 -4 6 -11 8 -16 5 -5
-4 -9 0 -9 7 0 11 -2 10 -9 0 -7 -11 -9 -11 -14 2 -4 9 -14 13 -27 11 -11 -2
-20 0 -20 6 0 5 -13 9 -30 9 -16 0 -30 4 -30 8 0 4 -10 9 -22 10 -23 2 -59 9
-68 12 -3 1 -9 2 -14 1 -4 -1 -13 2 -20 7 -6 4 -21 7 -33 6 -13 0 -23 2 -23 5
0 4 -18 7 -40 6 -22 -1 -40 2 -40 6 0 4 -8 6 -17 4 -10 -1 -26 2 -37 7 -13 7
-16 7 -12 -1 8 -13 0 -13 -29 -2 -11 5 -25 4 -32 -1 -7 -6 -13 -6 -13 -1 0 5
-27 9 -60 9 -37 1 -57 -3 -53 -9 4 -6 1 -7 -8 -1 -16 10 -100 13 -94 4 6 -9
-39 -6 -46 3 -3 4 -9 4 -13 0z m-50 -375 c4 -7 3 -8 -4 -4 -7 4 -12 1 -12 -8
0 -9 -6 -16 -12 -17 -10 0 -10 -2 0 -6 12 -5 7 -23 -7 -23 -13 0 -8 33 8 52
18 21 18 21 27 6z m-46 -79 c0 -5 -8 -9 -17 -10 -10 0 -13 -3 -6 -6 9 -3 7
-11 -7 -25 -11 -12 -17 -25 -14 -30 3 -4 0 -8 -6 -8 -6 0 -16 -13 -21 -30 -6
-16 -15 -30 -20 -30 -5 0 -9 -7 -9 -15 0 -8 -5 -15 -11 -15 -5 0 -8 -4 -4 -9
3 -6 -5 -19 -17 -30 -12 -12 -18 -21 -12 -21 5 0 1 -5 -9 -11 -9 -6 -15 -14
-12 -20 4 -5 1 -9 -4 -9 -6 0 -11 7 -11 15 0 8 5 15 11 15 6 0 9 7 5 15 -3 8
-2 14 2 12 4 -1 8 3 10 8 2 6 12 20 24 32 12 12 17 27 13 34 -5 7 -4 10 1 7
13 -8 31 15 28 36 -1 10 0 15 3 12 7 -7 48 55 45 67 -1 4 5 10 13 13 8 3 12
11 8 17 -3 6 -1 7 5 3 7 -4 12 -11 12 -17z m-186 -291 c-4 -7 -15 -25 -25 -39
-10 -14 -16 -28 -14 -31 3 -3 -2 -5 -10 -5 -19 0 -19 5 0 24 8 8 13 19 10 24
-4 5 1 9 9 9 9 0 15 3 15 8 -3 15 1 22 12 22 5 0 7 -6 3 -12z m-69 -114 c-14
-15 -25 -31 -25 -35 0 -5 -4 -9 -10 -9 -5 0 -2 16 8 35 9 19 25 35 34 35 14 0
13 -5 -7 -26z m-35 -65 c0 -5 -4 -7 -10 -4 -5 3 -10 -1 -10 -10 0 -9 -7 -23
-15 -32 -8 -8 -13 -19 -9 -24 3 -5 -2 -12 -10 -15 -9 -3 -16 -12 -16 -20 0 -8
-4 -14 -10 -14 -5 0 -9 -5 -7 -12 1 -7 -4 -13 -10 -14 -27 -3 -28 -5 -13 -14
12 -8 10 -10 -9 -10 -23 0 -23 1 -8 18 10 10 14 22 10 27 -5 4 -3 5 3 2 15 -9
38 19 28 34 -4 7 -3 9 3 6 10 -6 38 40 34 56 -1 5 4 5 10 1 9 -5 10 -2 6 9 -3
9 -1 18 6 21 20 8 27 7 27 -5z m1110 -184 c0 -5 4 -4 9 3 4 8 12 14 16 14 4 0
12 -6 16 -14 5 -7 9 -8 9 -3 0 6 9 11 20 12 11 1 20 -3 20 -9 0 -6 6 -5 16 3
13 10 17 10 25 -2 5 -8 9 -9 9 -4 0 15 55 13 56 -2 1 -7 2 -14 4 -15 7 -10 6
-38 -1 -38 -6 0 -6 -7 0 -18 6 -11 6 -24 0 -34 -6 -10 -6 -19 0 -23 7 -4 7
-15 1 -30 -7 -17 -6 -25 1 -25 8 0 8 -4 0 -14 -9 -10 -9 -16 -1 -21 8 -5 8
-11 -1 -21 -9 -11 -9 -14 0 -14 7 0 9 -6 4 -17 -10 -22 -10 -54 0 -71 5 -7 3
-12 -4 -12 -8 0 -8 -4 1 -15 7 -8 8 -15 3 -15 -5 0 -9 -9 -9 -20 0 -11 5 -20
10 -20 6 0 5 -5 -1 -11 -8 -8 -8 -20 -3 -35 7 -16 6 -24 -1 -24 -8 0 -7 -5 1
-15 10 -12 10 -15 -1 -15 -10 0 -11 -2 -2 -8 8 -5 9 -13 3 -22 -5 -9 -5 -19 2
-27 7 -9 7 -13 -2 -13 -10 0 -10 -3 0 -15 7 -8 8 -15 3 -15 -5 0 -9 -9 -9 -20
0 -11 4 -20 9 -20 4 0 5 -6 0 -12 -10 -17 -10 -40 1 -55 5 -9 4 -13 -4 -13
-10 0 -10 -3 0 -15 10 -12 10 -15 -1 -16 -11 0 -11 -2 -1 -6 10 -4 10 -8 1
-19 -9 -11 -8 -14 2 -14 10 0 10 -3 1 -12 -7 -7 -8 -17 -1 -30 7 -13 6 -18 -3
-18 -10 0 -10 -2 1 -9 11 -7 9 -10 -8 -16 -24 -7 -28 -22 -6 -22 8 0 11 5 8
10 -3 6 -2 7 4 4 10 -7 10 -67 -1 -85 -4 -7 -2 -12 5 -12 9 0 9 -3 0 -14 -9
-10 -9 -16 -1 -21 8 -5 8 -11 -1 -21 -9 -11 -9 -18 -1 -26 8 -8 9 -15 1 -25
-9 -10 -8 -13 2 -13 10 0 10 -3 1 -12 -8 -8 -9 -15 -1 -25 9 -9 8 -13 0 -13
-9 0 -9 -5 0 -21 8 -16 8 -20 -1 -14 -9 6 -9 2 -1 -14 9 -16 9 -21 -1 -21 -8
0 -9 -3 -3 -8 12 -8 13 -81 1 -100 -4 -7 -2 -12 5 -12 8 0 8 -4 -1 -15 -10
-12 -10 -15 1 -15 11 0 11 -2 -1 -10 -9 -6 -11 -10 -3 -10 9 0 10 -7 4 -22 -6
-16 -4 -27 8 -36 9 -7 11 -11 4 -8 -6 4 -14 2 -18 -4 -3 -5 -1 -10 6 -10 7 0
9 -3 6 -7 -4 -3 -1 -16 7 -28 13 -19 12 -25 -4 -50 -14 -21 -16 -33 -8 -42 8
-10 7 -13 -3 -13 -10 0 -10 -3 -1 -12 8 -8 9 -15 1 -25 -9 -10 -8 -13 2 -13
11 0 11 -2 -1 -10 -11 -7 -11 -10 -2 -10 9 0 10 -5 3 -17 -6 -11 -6 -24 0 -35
7 -12 6 -18 -2 -18 -8 0 -8 -4 1 -15 10 -12 10 -15 -1 -15 -10 0 -11 -2 -2 -8
8 -5 9 -13 3 -22 -5 -9 -5 -19 2 -27 7 -9 7 -13 -2 -13 -10 0 -10 -3 0 -15 10
-12 10 -15 0 -15 -9 0 -9 -4 -2 -13 15 -18 -2 -40 -32 -42 -14 0 -26 3 -26 8
0 4 -9 3 -19 -3 -14 -7 -22 -7 -26 0 -5 8 -11 7 -21 -1 -8 -6 -14 -7 -14 -2 0
5 -9 9 -20 9 -11 0 -20 -3 -20 -6 0 -4 -10 -6 -22 -6 -30 1 -50 26 -36 43 7 9
7 13 -2 13 -10 0 -10 3 -1 14 7 8 8 17 3 20 -10 6 -8 53 2 63 3 4 1 12 -5 20
-9 9 -8 13 0 13 8 0 9 6 4 18 -11 21 -10 103 0 120 5 7 3 12 -3 12 -7 0 -8 6
-1 19 6 10 8 21 4 24 -10 10 -10 51 0 65 6 8 5 12 -3 12 -9 0 -9 4 -2 13 7 8
7 18 2 27 -5 9 -5 19 2 27 8 10 7 13 -3 13 -10 0 -10 3 -1 12 8 8 9 15 1 25
-9 10 -8 13 1 13 10 0 10 3 1 14 -8 10 -9 16 -1 21 6 4 7 12 1 23 -6 10 -6 23
0 34 7 12 6 18 -2 18 -8 0 -8 4 1 15 10 12 10 15 0 15 -10 0 -10 3 0 15 10 12
10 15 0 15 -10 0 -10 3 0 15 10 12 10 15 0 15 -10 0 -10 3 0 15 9 11 9 15 1
15 -9 0 -9 5 -1 20 8 15 8 20 -2 21 -10 0 -10 2 -1 6 10 3 10 10 2 25 -8 16
-8 19 1 13 9 -6 9 -2 1 14 -9 16 -9 21 1 21 10 0 10 2 -1 9 -10 6 -10 10 -1
16 9 6 9 10 -1 16 -11 7 -11 9 -1 9 8 0 10 5 6 12 -11 17 -12 100 -2 121 5 9
5 17 1 17 -4 0 -8 11 -8 25 0 14 5 25 10 25 6 0 3 5 -5 10 -12 8 -12 10 -1 10
11 0 11 3 1 15 -10 12 -10 15 0 15 10 0 10 3 0 15 -10 12 -10 15 1 15 11 0 11
2 -1 10 -12 8 -12 10 -1 10 11 0 11 3 1 15 -7 8 -8 15 -3 15 5 0 9 9 9 20 0
11 -5 20 -10 20 -6 0 -5 5 2 12 7 7 8 17 2 28 -5 9 -5 22 0 30 5 9 5 19 -2 27
-6 8 -6 13 -1 13 5 0 10 7 10 15 0 8 -5 15 -10 15 -5 0 -4 7 3 15 10 12 10 15
-1 15 -12 0 -12 2 0 9 10 6 10 10 1 16 -9 6 -9 10 1 16 12 7 12 9 0 9 -11 0
-11 3 0 16 7 9 9 18 3 22 -13 10 -13 52 0 52 6 0 4 5 -4 10 -12 8 -12 10 -1
10 11 0 11 3 1 15 -10 12 -10 15 0 15 10 0 10 3 0 15 -10 12 -10 15 1 15 11 0
11 2 -1 10 -12 8 -12 10 -1 10 11 0 11 3 1 15 -7 8 -8 15 -3 15 5 0 10 7 10
15 0 8 -5 15 -10 15 -5 0 -4 7 3 15 10 12 10 15 0 15 -10 0 -10 3 0 15 10 12
10 15 0 15 -10 0 -10 3 0 15 7 8 8 15 3 15 -5 0 -10 7 -10 15 0 8 5 12 10 8 5
-3 7 3 3 14 -5 14 -1 19 14 19 11 0 20 -5 20 -11z m-1245 -21 c-8 -9 -15 -21
-15 -29 0 -7 -6 -15 -12 -17 -18 -6 -17 -51 2 -65 13 -11 13 -12 0 -13 -12 -1
-11 -3 3 -14 10 -8 19 -23 20 -35 1 -11 7 -23 15 -26 8 -3 11 -12 8 -20 -3 -8
-2 -15 2 -15 4 0 13 -9 20 -21 11 -17 11 -20 0 -14 -7 3 -5 0 6 -9 10 -8 15
-19 11 -25 -3 -6 -1 -11 4 -11 6 0 11 -7 11 -15 0 -8 5 -15 10 -15 6 0 10 -9
10 -20 0 -11 4 -20 8 -20 5 0 9 -7 10 -15 1 -8 3 -22 4 -29 1 -8 6 -14 11 -13
5 1 11 -6 12 -16 2 -10 11 -27 20 -37 9 -10 14 -24 10 -29 -3 -6 -1 -11 5 -11
7 0 9 -7 6 -16 -3 -8 -2 -13 2 -10 9 5 49 -83 44 -97 -1 -5 2 -6 8 -2 5 3 10
-1 10 -10 0 -10 5 -13 12 -9 7 4 8 3 4 -4 -4 -6 -1 -22 6 -34 7 -13 12 -27 13
-31 0 -4 7 -12 15 -17 8 -5 11 -10 7 -10 -7 0 30 -77 43 -90 3 -3 5 -12 5 -20
0 -8 7 -22 16 -30 9 -8 15 -23 13 -32 -1 -10 2 -18 7 -18 5 0 9 -7 9 -15 0 -8
5 -15 10 -15 6 0 10 -12 10 -26 0 -14 4 -23 10 -19 6 3 10 -3 10 -14 0 -12 5
-21 11 -21 5 0 8 -4 5 -9 -3 -5 1 -14 9 -21 22 -18 8 -41 -20 -30 -13 5 -26 6
-29 2 -11 -10 -36 -11 -36 -1 0 6 -6 7 -12 3 -18 -11 -48 -12 -54 -2 -3 4 -10
6 -15 2 -16 -9 -69 -11 -69 -2 0 4 -7 8 -16 8 -8 0 -13 4 -10 9 3 4 -1 17 -9
27 -8 10 -15 27 -15 37 0 9 -4 17 -10 17 -5 0 -10 9 -10 20 0 11 -5 20 -11 20
-6 0 -8 7 -5 16 4 11 2 15 -7 11 -8 -3 -14 4 -15 21 -1 14 -8 33 -16 41 -24
28 -31 45 -15 37 8 -4 5 1 -6 11 -11 10 -21 25 -23 33 -4 21 -23 60 -46 94
-13 19 -15 27 -5 21 7 -4 1 7 -16 25 -16 18 -24 30 -17 26 6 -4 12 -2 12 3 0
6 -4 11 -10 11 -5 0 -12 11 -16 25 -3 14 -10 25 -16 25 -5 0 -7 4 -3 9 3 5 -2
17 -11 25 -11 12 -12 16 -2 16 8 0 6 5 -5 11 -9 6 -15 14 -12 19 3 4 -2 10
-10 14 -9 3 -12 12 -8 22 5 13 3 15 -7 9 -10 -6 -12 -4 -7 8 3 10 2 17 -3 17
-6 0 -10 5 -10 12 0 6 -8 20 -17 31 -13 15 -14 18 -3 12 8 -4 4 4 -10 20 -14
16 -20 25 -13 22 7 -5 9 0 6 14 -4 14 -8 17 -13 8 -6 -8 -11 -5 -19 10 -7 13
-8 21 -2 21 6 0 18 15 27 33 9 17 21 35 27 39 6 3 12 14 13 24 2 9 9 21 16 25
7 5 9 9 3 9 -5 0 -3 6 5 13 17 14 31 36 56 85 9 17 20 32 25 32 5 0 8 3 7 8
-4 12 25 51 34 46 5 -3 1 -12 -7 -20z m-205 -335 c0 -5 -9 -17 -20 -26 -11
-10 -20 -23 -20 -30 0 -7 -5 -13 -11 -13 -5 0 -7 -4 -4 -10 3 -5 2 -10 -3 -10
-9 0 -25 -37 -23 -52 1 -5 -6 -8 -15 -8 -10 0 -14 -6 -11 -14 6 -14 -27 -56
-44 -56 -9 0 33 72 59 98 7 8 10 18 7 23 -4 5 -2 9 4 9 5 0 12 8 16 19 3 10
17 31 30 46 14 14 22 31 19 37 -4 7 -2 8 4 4 7 -4 12 -11 12 -17z m-153 -244
c0 -8 -4 -12 -9 -9 -4 3 -8 -2 -8 -10 0 -9 -5 -16 -11 -16 -5 0 -7 -5 -4 -10
3 -6 -1 -13 -9 -16 -9 -3 -16 -15 -16 -27 0 -11 -3 -17 -7 -13 -13 12 -11 35
3 40 8 3 14 12 14 21 0 8 4 15 9 15 5 0 13 9 16 20 7 23 22 27 22 5z m1060
-176 c-9 -6 -14 -15 -11 -21 4 -6 3 -8 -3 -5 -6 4 -13 -4 -15 -18 -3 -14 -2
-25 2 -25 5 0 6 -9 3 -20 -3 -11 0 -20 6 -20 6 0 11 -7 11 -16 0 -8 7 -22 15
-31 8 -8 13 -18 11 -22 -3 -4 2 -8 11 -8 31 0 70 54 64 90 0 4 4 7 10 7 8 0 7
5 -1 15 -7 9 -10 18 -7 22 9 9 -33 64 -44 58 -14 -9 -11 1 4 14 11 8 19 6 37
-9 12 -11 27 -17 31 -14 5 3 9 -4 9 -16 0 -12 4 -19 9 -16 5 3 11 -3 14 -14 3
-11 0 -20 -6 -20 -7 0 -5 -5 3 -10 10 -6 11 -10 3 -10 -7 0 -13 -9 -13 -20 0
-11 -5 -20 -11 -20 -5 0 -8 -4 -5 -8 3 -5 -6 -15 -19 -22 -14 -7 -25 -18 -25
-24 0 -8 -3 -8 -8 0 -4 6 -13 4 -24 -8 -10 -10 -13 -18 -8 -18 6 0 10 -7 10
-15 0 -8 5 -15 10 -15 6 0 15 -11 20 -25 5 -14 17 -25 25 -25 9 0 13 -4 10
-10 -3 -5 -1 -10 6 -10 7 0 10 -2 7 -5 -7 -7 45 -60 67 -69 9 -3 13 -11 9 -17
-4 -7 -3 -9 3 -6 6 4 16 0 23 -8 7 -8 19 -15 27 -15 8 0 12 -3 9 -8 -2 -4 14
-7 37 -7 31 1 41 5 39 16 -2 8 0 11 4 7 4 -4 14 -2 22 5 13 10 14 9 3 -11 -15
-28 -69 -62 -87 -55 -8 3 -14 0 -14 -7 0 -10 -3 -10 -15 0 -8 7 -15 9 -15 4 0
-5 -5 -2 -10 6 -8 12 -10 12 -10 1 0 -9 -7 -6 -19 8 -21 24 -63 27 -90 6 -10
-7 -9 -1 3 17 l18 28 -38 38 c-22 21 -50 55 -64 75 -14 20 -28 37 -32 37 -5 0
-8 6 -8 14 0 24 -40 14 -46 -10 -3 -13 -12 -25 -20 -28 -8 -3 -11 -12 -7 -22
5 -12 3 -15 -6 -9 -10 5 -11 3 -4 -11 5 -11 8 -31 7 -46 0 -15 3 -25 7 -22 5
3 9 -2 9 -10 0 -9 5 -16 11 -16 5 0 7 -5 3 -12 -5 -8 -2 -9 9 -5 11 4 17 1 17
-7 0 -9 10 -13 28 -12 18 1 29 -3 29 -11 0 -8 -13 -12 -39 -10 -21 1 -38 6
-38 10 0 5 -4 5 -10 2 -5 -3 -10 -1 -10 4 0 6 -3 10 -7 9 -15 -4 -53 23 -53
37 0 8 -4 15 -9 15 -5 0 -11 14 -13 30 -3 17 -1 30 3 30 4 0 6 9 4 19 -2 11 5
27 16 36 10 10 16 22 13 26 -3 5 2 6 10 3 9 -4 18 1 22 10 3 9 12 16 20 16 8
0 14 5 14 11 0 5 4 8 8 5 5 -3 9 1 9 9 0 8 -4 15 -9 15 -12 0 -51 88 -43 100
3 5 0 10 -7 10 -10 0 -10 2 1 9 8 5 9 11 3 15 -7 4 -1 17 13 32 14 15 23 30
20 34 -3 4 1 8 8 7 35 -1 48 4 41 16 -5 9 -3 8 7 -1 12 -11 11 -15 -4 -23z
m248 -298 c3 -5 2 -12 -3 -15 -5 -3 -9 1 -9 9 0 17 3 19 12 6z m-19 -47 c1 -9
0 -13 -4 -10 -3 4 -7 14 -8 22 -1 9 0 13 4 10 3 -4 7 -14 8 -22z m754 -85 c0
-6 -7 -17 -15 -26 -8 -8 -13 -19 -9 -24 3 -5 0 -8 -8 -7 -7 2 -12 -5 -12 -14
1 -10 -3 -16 -9 -15 -6 1 -12 -2 -12 -8 -3 -21 -19 -50 -33 -61 -9 -7 -12 -16
-7 -24 5 -9 4 -11 -3 -6 -7 4 -12 1 -12 -8 0 -9 -5 -16 -11 -16 -5 0 -7 -4 -4
-10 3 -5 1 -10 -5 -10 -6 0 -8 -4 -5 -10 4 -6 -1 -7 -11 -3 -11 4 -15 3 -10
-5 3 -6 2 -13 -4 -17 -6 -4 -8 -11 -5 -16 4 -5 -1 -12 -9 -15 -9 -3 -14 -10
-11 -14 3 -5 1 -11 -4 -14 -16 -11 -22 11 -6 24 8 7 13 16 10 20 -3 4 2 11 11
14 8 3 12 10 9 16 -3 6 1 13 10 16 9 4 14 13 11 20 -3 8 0 13 7 11 7 -1 11 4
10 11 -2 6 2 12 7 12 6 0 10 7 10 15 0 8 5 15 11 15 5 0 7 5 3 12 -5 7 -3 8 5
4 8 -5 11 -3 10 5 -3 16 32 79 44 79 5 0 5 5 1 12 -4 7 -3 8 4 4 7 -4 12 -1
12 8 0 9 5 16 11 16 5 0 7 5 4 10 -3 6 -1 10 4 10 6 0 11 -5 11 -11z m-890
-41 c0 -4 -3 -8 -7 -9 -5 0 -16 -2 -25 -4 -20 -4 -25 11 -5 18 20 6 37 4 37
-5z"/>
<path d="M4034 3272 c4 -7 3 -12 -3 -12 -6 0 -8 -6 -5 -13 3 -8 11 -14 18 -14
15 0 10 34 -7 44 -6 3 -7 1 -3 -5z"/>
<path d="M4126 2945 c3 -7 12 -12 19 -11 17 3 32 16 19 17 -5 0 -17 2 -26 4
-10 2 -15 -2 -12 -10z"/>
<path d="M4196 2767 c3 -10 9 -15 12 -12 3 3 0 11 -7 18 -10 9 -11 8 -5 -6z"/>
<path d="M4121 2643 c-1 -17 16 -25 25 -12 4 7 3 9 -4 5 -5 -3 -13 0 -15 6 -4
9 -6 10 -6 1z"/>
<path d="M4076 2562 c-3 -5 1 -9 9 -9 8 0 15 4 15 9 0 4 -4 8 -9 8 -6 0 -12
-4 -15 -8z"/>
<path d="M2630 3980 c0 -5 5 -10 10 -10 6 0 10 5 10 10 0 6 -4 10 -10 10 -5 0
-10 -4 -10 -10z"/>
<path d="M2852 3801 c-11 -7 -11 -9 0 -14 9 -3 15 1 15 9 0 8 -1 14 -1 14 -1
0 -7 -4 -14 -9z"/>
<path d="M3041 3478 c-1 -21 3 -26 15 -21 9 3 11 9 6 12 -5 3 -12 13 -15 21
-3 9 -6 4 -6 -12z"/>
<path d="M3630 3059 c0 -5 5 -7 10 -4 6 3 10 8 10 11 0 2 -4 4 -10 4 -5 0 -10
-5 -10 -11z"/>
<path d="M2276 4131 c-4 -5 -2 -12 3 -15 5 -4 12 -2 15 3 4 5 2 12 -3 15 -5 4
-12 2 -15 -3z"/>
<path d="M2103 4032 c-7 -13 -7 -21 3 -30 19 -17 23 -15 19 13 -3 34 -8 38
-22 17z"/>
<path d="M2207 3725 c-4 -8 -2 -17 3 -20 6 -4 10 -1 10 5 0 6 5 8 13 4 8 -5 8
-2 -2 9 -16 21 -17 21 -24 2z"/>
<path d="M2230 3669 c0 -5 5 -7 10 -4 6 3 10 8 10 11 0 2 -4 4 -10 4 -5 0 -10
-5 -10 -11z"/>
<path d="M4766 3553 c-6 -14 -5 -15 5 -6 7 7 10 15 7 18 -3 3 -9 -2 -12 -12z"/>
<path d="M2190 3421 c0 -6 5 -13 12 -17 6 -4 8 -3 4 4 -3 5 0 13 6 15 8 3 6 6
-4 6 -10 1 -18 -3 -18 -8z"/>
<path d="M2160 3340 c-8 -5 -10 -10 -5 -10 6 0 17 5 25 10 8 5 11 10 5 10 -5
0 -17 -5 -25 -10z"/>
<path d="M4575 3211 c-3 -5 0 -13 6 -17 7 -4 9 -3 5 4 -3 5 0 13 6 15 9 4 10
6 1 6 -6 1 -14 -3 -18 -8z"/>
<path d="M4803 3025 c0 -8 4 -15 9 -15 4 0 8 4 8 9 0 6 -4 12 -8 15 -5 3 -9
-1 -9 -9z"/>
<path d="M4996 2679 c9 -10 22 -19 28 -19 6 0 5 4 -2 9 -8 4 -12 12 -10 16 1
5 -5 9 -15 11 -18 2 -18 2 -1 -17z"/>
</g>
</svg>
