<svg width="182" height="182" viewBox="0 0 182 182" fill="none" xmlns="http://www.w3.org/2000/svg">
<g clip-path="url(#clip0_56_104)">
<path d="M155.703 30.8561H164.45V7H129.461V30.8561C129.461 30.8561 146.956 62.6643 146.956 94.4724C146.956 126.281 129.461 150.137 94.4722 150.137C59.4832 150.137 41.9887 126.281 41.9887 94.4724C41.9887 62.6643 59.4832 30.8561 59.4832 30.8561V7H24.4942V30.8561H33.2415C33.2415 30.8561 6.99976 62.6643 6.99976 110.377C6.99976 150.137 50.736 181.945 94.4722 181.945C138.208 181.945 181.945 150.137 181.945 110.377C181.945 62.6643 155.703 30.8561 155.703 30.8561ZM24.4942 102.424C19.2459 102.424 15.747 99.2437 15.747 94.4724C15.747 89.7012 19.2459 86.5204 24.4942 86.5204C29.7426 86.5204 33.2415 89.7012 33.2415 94.4724C33.2415 99.2437 29.7426 102.424 24.4942 102.424ZM41.9887 150.137C36.7404 150.137 33.2415 146.956 33.2415 142.185C33.2415 137.413 36.7404 134.233 41.9887 134.233C47.2371 134.233 50.736 137.413 50.736 142.185C50.736 146.956 47.2371 150.137 41.9887 150.137ZM94.4722 173.993C89.2239 173.993 85.725 170.812 85.725 166.041C85.725 161.27 89.2239 158.089 94.4722 158.089C99.7205 158.089 103.219 161.27 103.219 166.041C103.219 170.812 99.7205 173.993 94.4722 173.993ZM146.956 150.137C141.707 150.137 138.208 146.956 138.208 142.185C138.208 137.413 141.707 134.233 146.956 134.233C152.204 134.233 155.703 137.413 155.703 142.185C155.703 146.956 152.204 150.137 146.956 150.137ZM164.45 102.424C159.202 102.424 155.703 99.2437 155.703 94.4724C155.703 89.7012 159.202 86.5204 164.45 86.5204C169.699 86.5204 173.197 89.7012 173.197 94.4724C173.197 99.2437 169.699 102.424 164.45 102.424Z" fill="white" fill-opacity="0.2"/>
</g>
<defs>
<clipPath id="clip0_56_104">
<rect width="180" height="180" fill="white" transform="translate(1.81592) rotate(0.561839)"/>
</clipPath>
</defs>
</svg>
