<svg width="176" height="174" viewBox="0 0 176 174" fill="none" xmlns="http://www.w3.org/2000/svg">
<path d="M149.557 24.2343H158.305V0.378174H123.316V24.2343C123.316 24.2343 140.81 56.0425 140.81 87.8506C140.81 119.659 123.316 143.515 88.3267 143.515C53.3377 143.515 35.8432 119.659 35.8432 87.8506C35.8432 56.0425 53.3377 24.2343 53.3377 24.2343V0.378174H18.3487V24.2343H27.096C27.096 24.2343 0.854248 56.0425 0.854248 103.755C0.854248 143.515 44.5905 175.323 88.3267 175.323C132.063 175.323 175.799 143.515 175.799 103.755C175.799 56.0425 149.557 24.2343 149.557 24.2343ZM18.3487 95.8027C13.1004 95.8027 9.60149 92.6218 9.60149 87.8506C9.60149 83.0794 13.1004 79.8986 18.3487 79.8986C23.5971 79.8986 27.096 83.0794 27.096 87.8506C27.096 92.6218 23.5971 95.8027 18.3487 95.8027ZM35.8432 143.515C30.5949 143.515 27.096 140.334 27.096 135.563C27.096 130.792 30.5949 127.611 35.8432 127.611C41.0916 127.611 44.5905 130.792 44.5905 135.563C44.5905 140.334 41.0916 143.515 35.8432 143.515ZM88.3267 167.371C83.0783 167.371 79.5794 164.19 79.5794 159.419C79.5794 154.648 83.0783 151.467 88.3267 151.467C93.575 151.467 97.0739 154.648 97.0739 159.419C97.0739 164.19 93.575 167.371 88.3267 167.371ZM140.81 143.515C135.562 143.515 132.063 140.334 132.063 135.563C132.063 130.792 135.562 127.611 140.81 127.611C146.059 127.611 149.557 130.792 149.557 135.563C149.557 140.334 146.059 143.515 140.81 143.515ZM158.305 95.8027C153.056 95.8027 149.557 92.6218 149.557 87.8506C149.557 83.0794 153.056 79.8986 158.305 79.8986C163.553 79.8986 167.052 83.0794 167.052 87.8506C167.052 92.6218 163.553 95.8027 158.305 95.8027Z" fill="black" fill-opacity="0.2"/>
</svg>
