<svg width="36" height="36" viewBox="0 0 36 36" fill="none" xmlns="http://www.w3.org/2000/svg">
<g clip-path="url(#clip0_56_84)">
<path d="M29.7 0H6.3C2.82061 0 0 2.82061 0 6.3V29.7C0 33.1794 2.82061 36 6.3 36H29.7C33.1794 36 36 33.1794 36 29.7V6.3C36 2.82061 33.1794 0 29.7 0Z" fill="black"/>
<path d="M5.4113 11.1204H9.7313C9.82162 11.1202 9.90983 11.1476 9.9842 11.1989C10.0586 11.2501 10.1155 11.3228 10.1476 11.4073C10.6257 12.6391 12.6113 17.4598 14.4282 17.8535C15.7782 17.8535 15.3001 11.441 13.5844 11.441C13.1344 11.441 14.3832 10.6423 14.4676 10.6085C16.0619 10.1715 17.7445 10.1715 19.3388 10.6085C20.1994 10.9685 20.3457 11.9754 20.3682 12.8304C20.3907 13.6854 19.4119 17.3304 20.7001 17.7241C22.3876 18.2416 24.5588 12.9485 25.0651 11.6491C25.098 11.5657 25.1553 11.4942 25.2296 11.4441C25.3039 11.3939 25.3916 11.3673 25.4813 11.3679H30.2907C30.365 11.3677 30.4382 11.3858 30.5038 11.4208C30.5694 11.4558 30.6253 11.5064 30.6665 11.5683C30.7077 11.6301 30.733 11.7012 30.7401 11.7752C30.7471 11.8492 30.7357 11.9238 30.7069 11.9923C29.7163 14.2522 28.5286 16.4206 27.1576 18.4723C27.041 18.6416 26.9863 18.8459 27.0027 19.0508C27.0191 19.2556 27.1056 19.4486 27.2476 19.5973C28.6876 21.1385 32.6251 25.5035 30.3751 25.5035H25.5207C25.3952 25.5038 25.2711 25.4774 25.1567 25.426C25.0422 25.3746 24.94 25.2994 24.8569 25.2054C24.1032 24.3729 21.9094 22.0554 20.9194 22.241C20.0982 22.3929 20.0194 23.7879 20.0588 24.6991C20.0712 24.9342 19.991 25.1649 19.8354 25.3415C19.6798 25.5182 19.4611 25.6268 19.2263 25.6441C18.3657 25.6948 17.1901 25.7173 17.0832 25.7116C13.6519 25.4923 11.6213 23.2029 9.68068 20.6491C7.64789 17.9417 6.06215 14.926 4.9838 11.7166C4.96176 11.6487 4.95599 11.5766 4.96695 11.506C4.9779 11.4355 5.00529 11.3685 5.04689 11.3105C5.08849 11.2525 5.14314 11.205 5.20644 11.172C5.26974 11.139 5.33992 11.1213 5.4113 11.1204V11.1204Z" fill="white"/>
</g>
<defs>
<clipPath id="clip0_56_84">
<rect width="36" height="36" fill="white"/>
</clipPath>
</defs>
</svg>
