<svg width="36" height="36" viewBox="0 0 36 36" fill="none" xmlns="http://www.w3.org/2000/svg">
<g clip-path="url(#clip0_56_89)">
<path d="M35.9895 0H0.0105469C0.004722 0 0 0.004722 0 0.0105469V35.9895C0 35.9953 0.004722 36 0.0105469 36H35.9895C35.9953 36 36 35.9953 36 35.9895V0.0105469C36 0.004722 35.9953 0 35.9895 0Z" fill="black"/>
<path d="M13.9922 28.4062C13.2188 28.4062 13.2891 28.125 13.0781 27.4219L10.8281 20.0391L28.0547 9.91406" fill="#C8DAEA"/>
<path d="M13.9922 28.4062C14.4844 28.4062 14.7656 28.125 15.1172 27.8438L18.2812 24.8203L14.3438 22.4297" fill="#A9C9DD"/>
<path d="M14.3437 22.4296L23.8359 29.3906C24.8203 30.0234 25.664 29.6718 25.9453 28.4062L29.8125 10.2656C30.164 8.71869 29.1797 8.01557 28.125 8.50775L5.55466 17.2265C4.0781 17.789 4.0781 18.7031 5.27341 19.0546L11.1093 20.8828L24.4687 12.3749C25.1015 12.0234 25.664 12.164 25.2422 12.6562" fill="#F6FBFE"/>
</g>
<defs>
<clipPath id="clip0_56_89">
<rect width="36" height="36" rx="10" fill="white"/>
</clipPath>
</defs>
</svg>
